<svg xmlns="http://www.w3.org/2000/svg" data-name="Layer 1" viewBox="0 0 100 125" x="0px" y="0px"><title>Artboard 351</title><path d="M89,75.64a11,11,0,0,0-1.52-11.75l-6.67-8A12,12,0,0,1,78,48.21V42c0-11.27-6.46-21.82-16-26.62v-1A12.33,12.33,0,0,0,52,2.16,12,12,0,0,0,38,14v1.36C28.58,20,22,30.77,22,42v6.21a12,12,0,0,1-2.78,7.68l-6.64,8A11.05,11.05,0,0,0,21.07,82H79A11,11,0,0,0,89,75.64ZM18.3,72.24A3,3,0,0,1,18.72,69l6.64-8A20.05,20.05,0,0,0,30,48.21V42c0-8.84,5.73-17.54,13.34-20.23A4,4,0,0,0,46,18V14a4,4,0,0,1,4-4,4.14,4.14,0,0,1,.7.06A4.34,4.34,0,0,1,54,14.43V18a4,4,0,0,0,2.61,3.75C64.49,24.68,70,33,70,42v6.21A20.05,20.05,0,0,0,74.64,61l6.66,8A3,3,0,0,1,79,74H21.07A3,3,0,0,1,18.3,72.24Z"/><path d="M42,90a4,4,0,0,0,0,8H58a4,4,0,0,0,0-8Z"/><path d="M10,46a4,4,0,0,0,4-4,35.58,35.58,0,0,1,6-19.77l1.35-2a4,4,0,0,0-6.66-4.44l-1.34,2A43.44,43.44,0,0,0,6,42,4,4,0,0,0,10,46Z"/><path d="M94,42a43.44,43.44,0,0,0-7.33-24.2l-1.34-2a4,4,0,0,0-6.66,4.44l1.35,2A35.58,35.58,0,0,1,86,42a4,4,0,0,0,8,0Z"/><text x="0" y="115" fill="#000000" font-size="5px" font-weight="bold" font-family="'Helvetica Neue', Helvetica, Arial-Unicode, Arial, Sans-serif">Created by Gregor Cresnar</text><text x="0" y="120" fill="#000000" font-size="5px" font-weight="bold" font-family="'Helvetica Neue', Helvetica, Arial-Unicode, Arial, Sans-serif">from the Noun Project</text></svg>